<svg xmlns="http://www.w3.org/2000/svg" xmlns:xlink="http://www.w3.org/1999/xlink" width="128" height="128" viewBox="0 0 128 128">
  <defs>
    <clipPath id="clip-Logo">
      <rect width="128" height="128"/>
    </clipPath>
  </defs>
  <g id="Logo" clip-path="url(#clip-Logo)">
    <rect width="128" height="128" fill="#fff"/>
    <g id="Group_2" data-name="Group 2" transform="translate(4 -23)">
      <g id="Path_23" data-name="Path 23" transform="translate(31 31)" fill="none">
        <path d="M29,0A29,29,0,1,1,0,29,29,29,0,0,1,29,0Z" stroke="none"/>
        <path d="M 29 7 C 16.86915588378906 7 7 16.86915588378906 7 29 C 7 41.13084411621094 16.86915588378906 51 29 51 C 41.13084411621094 51 51 41.13084411621094 51 29 C 51 16.86915588378906 41.13084411621094 7 29 7 M 29 0 C 45.01625823974609 0 58 12.98374176025391 58 29 C 58 45.01625823974609 45.01625823974609 58 29 58 C 12.98374176025391 58 0 45.01625823974609 0 29 C 0 12.98374176025391 12.98374176025391 0 29 0 Z" stroke="none" fill="#fc573b"/>
      </g>
      <g id="Path_24" data-name="Path 24" transform="translate(42 42)" fill="none">
        <path d="M18.167,0A18.167,18.167,0,1,1,0,18.167,18.167,18.167,0,0,1,18.167,0Z" stroke="none"/>
        <path d="M 18.1666259765625 4.999996185302734 C 14.64969635009766 4.999996185302734 11.34326553344727 6.369565963745117 8.856416702270508 8.856416702270508 C 6.369565963745117 11.34326553344727 4.999996185302734 14.64969635009766 4.999996185302734 18.1666259765625 C 4.999996185302734 21.68355560302734 6.369565963745117 24.98998641967773 8.856416702270508 27.47683715820313 C 11.34326553344727 29.96368598937988 14.64969635009766 31.33325576782227 18.1666259765625 31.33325576782227 C 21.68355560302734 31.33325576782227 24.98998641967773 29.96368598937988 27.47683715820313 27.47683715820313 C 29.96368598937988 24.98998641967773 31.33325576782227 21.68355560302734 31.33325576782227 18.1666259765625 C 31.33325576782227 14.64969635009766 29.96368598937988 11.34326553344727 27.47683715820313 8.856416702270508 C 24.98998641967773 6.369565963745117 21.68355560302734 4.999996185302734 18.1666259765625 4.999996185302734 M 18.1666259765625 -3.814697265625e-06 C 28.19977569580078 -3.814697265625e-06 36.33325576782227 8.133476257324219 36.33325576782227 18.1666259765625 C 36.33325576782227 28.19977569580078 28.19977569580078 36.33325576782227 18.1666259765625 36.33325576782227 C 8.133476257324219 36.33325576782227 -3.814697265625e-06 28.19977569580078 -3.814697265625e-06 18.1666259765625 C -3.814697265625e-06 8.133476257324219 8.133476257324219 -3.814697265625e-06 18.1666259765625 -3.814697265625e-06 Z" stroke="none" fill="rgba(252,87,59,0.63)"/>
      </g>
      <g id="Path_25" data-name="Path 25" transform="translate(51 51)" fill="none">
        <path d="M9.167,0A9.167,9.167,0,1,1,0,9.167,9.167,9.167,0,0,1,9.167,0Z" stroke="none"/>
        <path d="M 9.166671752929688 5.000001907348633 C 6.869161605834961 5.000001907348633 5.000001907348633 6.869161605834961 5.000001907348633 9.166671752929688 C 5.000001907348633 11.46418190002441 6.869161605834961 13.33334159851074 9.166671752929688 13.33334159851074 C 11.46418190002441 13.33334159851074 13.33334159851074 11.46418190002441 13.33334159851074 9.166671752929688 C 13.33334159851074 6.869161605834961 11.46418190002441 5.000001907348633 9.166671752929688 5.000001907348633 M 9.166671752929688 1.9073486328125e-06 C 14.22928237915039 1.9073486328125e-06 18.33334159851074 4.104062080383301 18.33334159851074 9.166671752929688 C 18.33334159851074 14.22928237915039 14.22928237915039 18.33334159851074 9.166671752929688 18.33334159851074 C 4.104062080383301 18.33334159851074 1.9073486328125e-06 14.22928237915039 1.9073486328125e-06 9.166671752929688 C 1.9073486328125e-06 4.104062080383301 4.104062080383301 1.9073486328125e-06 9.166671752929688 1.9073486328125e-06 Z" stroke="none" fill="#ffa394"/>
      </g>
    </g>
    <text id="WP_Rest_APi_Helper" data-name="WP Rest APi Helper" transform="translate(0 104)" fill="#707070" font-size="9" font-family="Stencil"><tspan x="18.567" y="8">WP Rest APi Helper</tspan></text>
    <g id="drop" transform="translate(-13.887 70)">
      <path id="Path_26" data-name="Path 26" d="M82.684,8.208a4.542,4.542,0,1,1-9.084,0C73.6,5.684,78.142,0,78.142,0S82.684,5.711,82.684,8.208Z" fill="#fc573b"/>
      <path id="Path_27" data-name="Path 27" d="M124.947,317.345A3.35,3.35,0,0,1,121.6,314a.4.4,0,0,1,.8,0,2.551,2.551,0,0,0,2.55,2.55.4.4,0,0,1,0,.8Z" transform="translate(-46.805 -305.791)" fill="#fff"/>
    </g>
    <g id="drop-2" data-name="drop" transform="translate(-3.887 81)">
      <path id="Path_26-2" data-name="Path 26" d="M82.684,8.208a4.542,4.542,0,1,1-9.084,0C73.6,5.684,78.142,0,78.142,0S82.684,5.711,82.684,8.208Z" fill="#fc573b"/>
      <path id="Path_27-2" data-name="Path 27" d="M124.947,317.345A3.35,3.35,0,0,1,121.6,314a.4.4,0,0,1,.8,0,2.551,2.551,0,0,0,2.55,2.55.4.4,0,0,1,0,.8Z" transform="translate(-46.805 -305.791)" fill="#fff"/>
    </g>
    <g id="drop-3" data-name="drop" transform="translate(-23.887 88)">
      <path id="Path_26-3" data-name="Path 26" d="M82.684,8.208a4.542,4.542,0,1,1-9.084,0C73.6,5.684,78.142,0,78.142,0S82.684,5.711,82.684,8.208Z" fill="#fc573b"/>
      <path id="Path_27-3" data-name="Path 27" d="M124.947,317.345A3.35,3.35,0,0,1,121.6,314a.4.4,0,0,1,.8,0,2.551,2.551,0,0,0,2.55,2.55.4.4,0,0,1,0,.8Z" transform="translate(-46.805 -305.791)" fill="#fff"/>
    </g>
  </g>
</svg>
